<svg width="116" height="48" viewBox="0 0 116 48" fill="none" xmlns="http://www.w3.org/2000/svg">
<path d="M6.6 23.48C6.408 23.736 6.408 23.976 6.6 24.2L20.856 38.888C21.112 39.144 21.272 39.368 21.336 39.56C21.4 39.72 21.432 40.056 21.432 40.568V46.328C21.432 47.128 21.32 47.544 21.096 47.576C20.872 47.608 20.44 47.288 19.8 46.616L0.984 26.84C0.728 26.552 0.568 26.36 0.504 26.264C0.472 26.168 0.456 25.944 0.456 25.592V22.232C0.456 21.848 0.472 21.592 0.504 21.464C0.568 21.304 0.728 21.096 0.984 20.84L19.8 1.064C20.44 0.391998 20.872 0.0719976 21.096 0.103997C21.32 0.135999 21.432 0.551999 21.432 1.352V7.112C21.432 7.624 21.4 7.976 21.336 8.168C21.272 8.328 21.112 8.536 20.856 8.792L6.6 23.48ZM78.3641 43.832C78.2361 44.12 78.0761 44.296 77.8841 44.36C77.7241 44.456 77.5161 44.504 77.2601 44.504H73.8041C73.4521 44.504 73.1801 44.424 72.9881 44.264C72.8281 44.136 72.8121 43.88 72.9401 43.496L85.3721 4.28C85.5001 3.928 85.7561 3.752 86.1401 3.752H89.9321C90.6681 3.752 90.9401 4.072 90.7481 4.712L78.3641 43.832ZM94.6361 8.792C94.3801 8.536 94.2201 8.328 94.1561 8.168C94.0921 7.976 94.0601 7.624 94.0601 7.112V1.352C94.0601 0.551999 94.1721 0.135999 94.3961 0.103997C94.6201 0.0719976 95.0521 0.391998 95.6921 1.064L114.508 20.84C114.764 21.096 114.908 21.304 114.94 21.464C115.004 21.592 115.036 21.848 115.036 22.232V25.592C115.036 25.944 115.004 26.168 114.94 26.264C114.908 26.36 114.764 26.552 114.508 26.84L95.6921 46.616C95.0521 47.288 94.6201 47.608 94.3961 47.576C94.1721 47.544 94.0601 47.128 94.0601 46.328V40.568C94.0601 40.056 94.0921 39.72 94.1561 39.56C94.2201 39.368 94.3801 39.144 94.6361 38.888L108.892 24.2C109.084 23.976 109.084 23.736 108.892 23.48L94.6361 8.792Z" fill="#FEFEFE"/>
<path d="M61.8641 40.952C61.4481 40.952 61.1921 40.904 61.0961 40.808C61.0001 40.68 60.9521 40.424 60.9521 40.04V15.944L51.5921 39.896C51.4321 40.248 51.2881 40.472 51.1601 40.568C51.0321 40.664 50.7921 40.712 50.4401 40.712H46.2641C45.9121 40.712 45.6561 40.664 45.4961 40.568C45.3681 40.472 45.2401 40.248 45.1121 39.896L35.7521 15.944V40.04C35.7521 40.424 35.7041 40.68 35.6081 40.808C35.5121 40.904 35.2561 40.952 34.8401 40.952H30.1361C29.7201 40.952 29.4641 40.904 29.3681 40.808C29.2721 40.68 29.2241 40.424 29.2241 40.04V5.432C29.2241 4.76 29.2881 4.36 29.4161 4.232C29.5761 4.072 29.9761 3.992 30.6161 3.992H35.9921C36.2801 3.992 36.5041 4.04 36.6641 4.136C36.8241 4.232 36.9681 4.44 37.0961 4.76L48.3281 32.648L59.6081 4.76C59.8001 4.248 60.2001 3.992 60.8081 3.992H66.0401C66.7121 3.992 67.1121 4.072 67.2401 4.232C67.4001 4.36 67.4801 4.76 67.4801 5.432V40.04C67.4801 40.424 67.4161 40.68 67.2881 40.808C67.1921 40.904 66.9521 40.952 66.5681 40.952H61.8641Z" fill="#FF8300"/>
</svg>
